<svg width="30" height="30" viewBox="0 0 30 30" fill="none" xmlns="http://www.w3.org/2000/svg">
<rect width="30" height="30" fill="white"/>
<path d="M24.8722 21.9231H10.8971C10.0014 21.9231 9.2337 21.2474 9.04888 20.3315L6.959 9.29548C6.73154 8.06428 7.61298 6.9231 8.80719 6.9231H26.9621C28.1562 6.9231 29.0377 8.06428 28.8103 9.29548L26.7204 20.3315C26.5497 21.2474 25.782 21.9231 24.8722 21.9231Z" stroke="#FF4200" stroke-width="2" stroke-miterlimit="10" stroke-linecap="round" stroke-linejoin="round"/>
<path d="M10.9615 27.6923C11.9174 27.6923 12.6923 26.9173 12.6923 25.9616C12.6923 25.0057 11.9174 24.2307 10.9615 24.2307C10.0055 24.2307 9.23071 25.0057 9.23071 25.9616C9.23071 26.9173 10.0055 27.6923 10.9615 27.6923Z" stroke="#00A9EA" stroke-width="2" stroke-miterlimit="10" stroke-linecap="round" stroke-linejoin="round"/>
<path d="M23.6539 27.6923C24.6098 27.6923 25.3846 26.9173 25.3846 25.9616C25.3846 25.0057 24.6098 24.2307 23.6539 24.2307C22.6979 24.2307 21.9231 25.0057 21.9231 25.9616C21.9231 26.9173 22.6979 27.6923 23.6539 27.6923Z" stroke="#00A9EA" stroke-width="2" stroke-miterlimit="10" stroke-linecap="round" stroke-linejoin="round"/>
<path d="M6.92304 16.1537L4.99573 5.09163C4.83089 4.14553 4.10816 3.46143 3.25864 3.46143H1.15381" stroke="#FF4200" stroke-width="2" stroke-miterlimit="10" stroke-linecap="round" stroke-linejoin="round"/>
<path d="M19.6155 21.9231H25.0015C25.8819 21.9231 26.6246 21.2474 26.7896 20.3315L28.8115 9.29548C29.0315 8.06428 28.1788 6.9231 27.0234 6.9231" stroke="#25258C" stroke-width="2" stroke-miterlimit="10" stroke-linecap="round" stroke-linejoin="round"/>
</svg>
