<svg width="26" height="26" viewBox="0 0 26 26" fill="none" xmlns="http://www.w3.org/2000/svg">
<g clip-path="url(#clip0_304_36)">
<g clip-path="url(#clip1_304_36)">
<path d="M1 12.29C1 5.63001 7.12 0.31001 14.33 1.07001C17.45 1.40001 20.23 2.90001 22.15 5.09001" stroke="#FF4200" stroke-width="2" stroke-miterlimit="10" stroke-linecap="round" stroke-linejoin="round"/>
<path d="M22.16 5.1001C23.61 6.7501 24.58 8.8001 24.84 11.0301C25.62 17.8401 20 23.6001 12.96 23.6001C11.51 23.6001 10.11 23.3501 8.82 22.9001C8.56 22.8101 8.28 22.8201 8.04 22.9501L5.53 24.7301C4.56 25.4201 3.18 24.7101 3.26 23.5701L3.54 19.5501C3.54 19.3601 3.47 19.1701 3.35 19.0201C1.87 17.1401 1 14.8101 1 12.2901" stroke="#25258C" stroke-width="2" stroke-miterlimit="10" stroke-linecap="round" stroke-linejoin="round"/>
<path d="M6.13989 14.03C7.27989 16.53 9.89989 18.27 12.9599 18.27C16.0199 18.27 18.6399 16.53 19.7799 14.03" stroke="#00A9EA" stroke-width="2" stroke-miterlimit="10" stroke-linecap="round" stroke-linejoin="round"/>
</g>
</g>
<defs>
<clipPath id="clip0_304_36">
<rect width="26" height="26" fill="white"/>
</clipPath>
<clipPath id="clip1_304_36">
<rect width="25.91" height="26" fill="white"/>
</clipPath>
</defs>
</svg>
