<svg width="26" height="27" viewBox="0 0 26 27" fill="none" xmlns="http://www.w3.org/2000/svg">
<path d="M15.9025 17.6174H13.54H10.3C9.55444 17.6174 8.95003 18.2218 8.95003 18.9674V25.0424C8.95003 25.788 8.34561 26.3924 7.60003 26.3924H2.94253C2.19694 26.3924 1.59253 25.788 1.59253 25.0424V15.3918C1.59253 15.0848 1.69722 14.7869 1.88933 14.5473L12.0325 1.89821C12.567 1.2316 13.5786 1.223 14.1244 1.88043L24.6362 14.5424C24.8374 14.7848 24.9475 15.0898 24.9475 15.4048V25.0424C24.9475 25.788 24.3431 26.3924 23.5975 26.3924H18.6025C17.8569 26.3924 17.2525 25.788 17.2525 25.0424V18.9674C17.2525 18.2218 16.6481 17.6174 15.9025 17.6174Z" fill="#25258C"/>
<path fill-rule="evenodd" clip-rule="evenodd" d="M1.05249 17.5656V17.0721C1.05249 16.7704 1.15359 16.4773 1.33964 16.2398L12.3598 2.16838C12.8945 1.48561 13.9251 1.4769 14.4712 2.15053L17.9886 6.48863C16.085 12.9871 10.1987 17.7223 3.2323 17.7223C2.49235 17.7223 1.76459 17.6689 1.05249 17.5656Z" fill="#3737B1"/>
<path d="M1.521 19.2524V15.7708C1.521 15.211 1.71355 14.6785 2.06014 14.2689L11.7391 2.7316C12.5349 1.7895 13.87 1.7895 14.6658 2.7316L20.4424 9.61299" stroke="#FF4200" stroke-width="2" stroke-miterlimit="10" stroke-linecap="round"/>
<path d="M20.0444 9.12158L24.3447 14.2553C24.6913 14.6649 24.8839 15.1974 24.8839 15.7572V24.1132C24.8839 25.342 23.9853 26.3251 22.8813 26.3251H19.4796C18.3756 26.3251 17.4771 25.3284 17.4771 24.1132V19.6894C17.4771 18.4606 16.5785 17.4776 15.4745 17.4776H10.9175" stroke="#FF4200" stroke-width="2" stroke-miterlimit="10" stroke-linecap="round"/>
<path d="M10.9175 17.4775C9.81355 17.4775 8.91497 18.4743 8.91497 19.6894V24.1132C8.91497 25.342 8.0164 26.325 6.91244 26.325H3.52353C2.41957 26.325 1.521 25.3283 1.521 24.1132V19.2389" stroke="#00A9EA" stroke-width="2" stroke-miterlimit="10" stroke-linecap="round"/>
<circle cx="13.3374" cy="11.2049" r="2.295" fill="white"/>
</svg>
