<svg width="27" height="26" viewBox="0 0 27 26" fill="none" xmlns="http://www.w3.org/2000/svg">
<g clip-path="url(#clip0_155_792)">
<path d="M19.1815 1.9403C20.7223 1.9403 22.0704 3.20149 22.0704 4.75373C22.0704 6.30597 20.8186 7.56716 19.1815 7.56716C17.5445 7.56716 16.2926 6.30597 16.2926 4.75373C16.3889 3.20149 17.6408 1.9403 19.1815 1.9403ZM19.1815 0C16.5815 0 14.3667 2.13433 14.3667 4.75373C14.3667 7.37314 16.4852 9.50746 19.1815 9.50746C21.8778 9.50746 23.9963 7.37314 23.9963 4.75373C23.9963 2.13433 21.8778 0 19.1815 0Z" fill="#6E6E6E"/>
<path d="M7.81848 1.9403C9.35922 1.9403 10.7074 3.20149 10.7074 4.75373C10.7074 6.30597 9.45551 7.56716 7.81848 7.56716C6.18144 7.56716 4.92959 6.30597 4.92959 4.75373C4.92959 3.20149 6.18144 1.9403 7.81848 1.9403ZM7.81848 0C5.21848 0 3.00366 2.13433 3.00366 4.75373C3.00366 7.37314 5.12218 9.50746 7.81848 9.50746C10.4185 9.50746 12.6333 7.37314 12.6333 4.75373C12.537 2.13433 10.4185 0 7.81848 0Z" fill="#9B9B9B"/>
<path d="M5.6037 12.709C5.7963 12.709 5.89259 12.806 5.89259 13C5.89259 15.0373 6.66296 16.9776 8.10741 18.4329C8.87778 19.209 9.74444 19.7911 10.7074 20.1791C10.0333 21.1493 9.64815 22.2164 9.35926 23.2836C8.01111 22.7015 6.66296 21.9254 5.6037 20.8582C3.48519 18.8209 2.32963 16.0075 2.32963 13.097V12.806H5.6037M5.6037 10.7687H0.5V13C0.5 16.5896 1.94444 19.7911 4.35185 22.2164C6.18148 24.0597 8.49259 25.3209 11.0926 25.806V25.4179C11.0926 22.7985 12.4407 20.3732 14.7519 18.9179L15.9074 18.2388C15.137 18.5299 14.3667 18.7239 13.5 18.7239C11.9593 18.7239 10.5148 18.0448 9.45556 17.0746C8.3963 16.0075 7.81852 14.6493 7.81852 13C7.81852 11.7388 6.75926 10.7687 5.6037 10.7687Z" fill="#9B9B9B"/>
<path d="M24.574 12.709V13C24.574 19.112 19.5666 24.0597 13.4999 24.0597C13.4036 24.0597 13.3073 24.0597 13.1148 24.0597C13.4999 22.6045 14.3666 21.3433 15.6185 20.5672L16.6777 19.8881C17.4481 19.5 18.2185 19.0149 18.7962 18.4329C20.2407 16.9776 21.011 15.0373 21.011 13C21.011 12.903 21.011 12.903 21.1073 12.806C21.2036 12.709 21.2036 12.709 21.2999 12.709H24.574ZM26.4999 10.7687H21.3962C20.8185 10.7687 20.2407 11.0597 19.8555 11.4478C19.4703 11.8358 19.1814 12.4179 19.1814 13C19.1814 14.5523 18.5073 16.0075 17.5444 17.0746C17.0629 17.5597 16.4851 17.9478 15.9073 18.2388L14.7518 18.9179C12.537 20.2761 11.0925 22.7015 11.0925 25.4179V25.806C11.2851 25.806 11.4777 25.903 11.574 25.903C12.1518 26 12.8259 26 13.4999 26C20.7222 26 26.4999 20.1791 26.4999 13V10.7687Z" fill="#5D5D5D"/>
</g>
<defs>
<clipPath id="clip0_155_792">
<rect width="26" height="26" fill="white" transform="translate(0.5)"/>
</clipPath>
</defs>
</svg>
