<svg width="26" height="24" viewBox="0 0 26 24" fill="none" xmlns="http://www.w3.org/2000/svg">
<path d="M14.6165 21.8845L14.229 22.3254C13.5476 23.087 12.4387 23.087 11.7707 22.3254L2.60539 12.118C0.440992 9.69975 0.253946 6.03898 2.17786 3.40696C2.20458 3.38024 2.21793 3.35352 2.24465 3.3268C4.80987 -0.0801254 10.5415 0.561178 12.3719 4.3422L12.9865 5.65152" stroke="#5D5D5D" stroke-width="2" stroke-miterlimit="10" stroke-linecap="round"/>
<path d="M23.3808 12.1182L18.1034 17.9968C17.3151 18.8786 15.792 18.8652 15.0171 17.9701L10.7551 13.0133" stroke="#9B9B9B" stroke-width="2" stroke-miterlimit="10" stroke-linecap="round"/>
<path d="M12.9866 5.65153L13.6279 4.3422C15.4583 0.561178 21.1899 -0.0801256 23.7551 3.3268C23.7818 3.35352 23.7952 3.38024 23.8219 3.40696C25.7458 6.03898 25.5588 9.69975 23.3944 12.118" stroke="#6E6E6E" stroke-width="2" stroke-miterlimit="10" stroke-linecap="round"/>
</svg>
